<?xml version="1.0" standalone="no"?>
<!DOCTYPE svg PUBLIC "-//W3C//DTD SVG 20010904//EN"
 "http://www.w3.org/TR/2001/REC-SVG-20010904/DTD/svg10.dtd">
<svg version="1.0" xmlns="http://www.w3.org/2000/svg"
 width="512.000000pt" height="512.000000pt" viewBox="0 0 512.000000 512.000000"
 preserveAspectRatio="xMidYMid meet">

<g transform="translate(0.000000,512.000000) scale(0.100000,-0.100000)"
stroke="none">
<path d="M2355 5109 c-528 -55 -1037 -344 -1360 -774 -245 -326 -376 -701
-392 -1120 l-6 -160 -41 3 c-58 5 -181 -23 -245 -55 -198 -101 -311 -369 -311
-743 0 -392 115 -652 335 -757 66 -31 89 -37 171 -41 l94 -5 0 -69 c0 -88 24
-140 80 -168 37 -19 58 -20 370 -20 312 0 333 1 370 20 26 13 47 34 60 60 20
38 20 57 20 975 0 918 0 937 -20 975 -13 26 -34 47 -60 60 -36 18 -58 20 -276
20 l-237 0 7 63 c24 214 124 488 251 684 275 423 716 695 1220 753 391 44 804
-64 1135 -298 121 -85 306 -270 393 -392 150 -212 264 -503 293 -753 l7 -57
-237 0 c-218 0 -240 -2 -276 -20 -26 -13 -47 -34 -60 -60 -20 -38 -20 -57 -20
-975 0 -918 0 -937 20 -975 13 -26 34 -47 60 -60 36 -18 58 -20 280 -20 l240
0 0 -95 c0 -115 -13 -182 -52 -259 -58 -116 -179 -208 -306 -235 -31 -6 -162
-11 -315 -11 l-262 0 -25 53 c-30 64 -128 164 -193 196 -90 43 -140 51 -349
51 -212 0 -272 -8 -358 -48 -72 -34 -169 -131 -203 -204 -125 -265 27 -576
311 -637 77 -16 434 -14 499 3 125 33 229 114 284 221 l34 65 278 0 c302 0
377 9 492 57 174 73 323 219 401 392 52 115 56 149 61 439 l5 272 66 0 c333 1
532 300 532 800 0 373 -115 648 -311 744 -65 31 -188 59 -245 54 l-41 -3 -6
160 c-7 188 -32 345 -81 507 -273 900 -1150 1484 -2081 1387z m-1155 -2854 l0
-755 -150 0 -150 0 0 755 0 755 150 0 150 0 0 -755z m3020 0 l0 -755 -150 0
-150 0 0 755 0 755 150 0 150 0 0 -755z m-3636 499 c14 -5 16 -59 16 -500 l0
-494 -57 0 c-115 0 -179 72 -219 245 -26 109 -26 407 -1 508 42 170 106 244
214 246 17 1 38 -2 47 -5z m4057 -5 c74 -25 121 -97 156 -236 22 -88 24 -398
4 -488 -30 -134 -77 -217 -142 -251 -15 -7 -53 -14 -84 -14 l-55 0 0 494 c0
386 3 495 13 499 22 9 73 7 108 -4z m-1711 -2169 c45 -23 80 -80 80 -130 0
-50 -35 -107 -80 -130 -35 -18 -59 -20 -220 -20 -161 0 -185 2 -220 20 -102
52 -104 196 -4 256 37 23 47 24 222 24 164 0 187 -2 222 -20z"/>
</g>
</svg>
