<?xml version="1.0" standalone="no"?>
<!DOCTYPE svg PUBLIC "-//W3C//DTD SVG 20010904//EN"
 "http://www.w3.org/TR/2001/REC-SVG-20010904/DTD/svg10.dtd">
<svg version="1.0" xmlns="http://www.w3.org/2000/svg"
 width="512.000000pt" height="512.000000pt" viewBox="0 0 512.000000 512.000000"
 preserveAspectRatio="xMidYMid meet">

<g transform="translate(0.000000,512.000000) scale(0.100000,-0.100000)"
stroke="none">
<path d="M3139 4784 c-25 -11 -344 -346 -1170 -1230 -623 -669 -1142 -1232
-1153 -1251 -48 -95 30 -223 137 -223 35 0 153 23 770 152 81 17 150 28 154
25 3 -3 -58 -399 -136 -879 -78 -480 -141 -889 -141 -909 0 -101 124 -177 219
-134 28 12 336 336 1172 1231 624 668 1142 1232 1152 1252 47 99 -30 222 -139
222 -20 0 -232 -41 -471 -91 -238 -51 -436 -89 -439 -86 -3 3 56 400 130 884
75 483 136 889 136 903 0 45 -42 103 -90 128 -51 25 -81 27 -131 6z m-293
-1397 c-127 -822 -124 -791 -62 -853 60 -60 67 -60 563 45 113 24 180 34 175
26 -8 -14 -1513 -1625 -1517 -1625 -2 0 -1 8 1 18 15 68 234 1457 234 1483 0
47 -38 108 -80 130 -20 11 -55 19 -82 19 -26 0 -177 -27 -335 -60 -158 -33
-293 -59 -299 -58 -7 2 330 369 748 816 419 447 762 811 765 809 2 -2 -48
-340 -111 -750z"/>
</g>
</svg>
