<?xml version="1.0" standalone="no"?>
<!DOCTYPE svg PUBLIC "-//W3C//DTD SVG 20010904//EN"
 "http://www.w3.org/TR/2001/REC-SVG-20010904/DTD/svg10.dtd">
<svg version="1.0" xmlns="http://www.w3.org/2000/svg"
 width="512.000000pt" height="512.000000pt" viewBox="0 0 512.000000 512.000000"
 preserveAspectRatio="xMidYMid meet">

<g transform="translate(0.000000,512.000000) scale(0.100000,-0.100000)"
stroke="none">
<path d="M621 5109 c-237 -42 -460 -216 -556 -434 -45 -102 -59 -172 -59 -305
0 -175 32 -284 125 -422 27 -40 269 -291 668 -691 l626 -627 -697 -698 c-383
-383 -703 -711 -712 -729 -21 -43 -20 -86 3 -131 24 -46 1014 -1034 1058
-1056 41 -20 85 -20 126 0 18 9 346 329 729 712 l698 697 422 -421 423 -420
733 -292 c402 -161 746 -292 762 -292 76 0 150 74 150 150 0 16 -131 360 -292
762 l-292 733 -420 423 -421 422 697 698 c383 383 703 711 712 729 20 41 20
85 0 126 -22 44 -1010 1034 -1056 1058 -45 23 -88 24 -131 3 -18 -9 -346 -329
-729 -712 l-698 -697 -627 626 c-402 400 -651 641 -691 668 -75 50 -147 84
-228 106 -73 19 -250 27 -323 14z m221 -300 c103 -22 156 -56 283 -180 l120
-118 -318 -318 -318 -318 -118 120 c-131 134 -163 186 -183 304 -24 142 21
282 126 386 111 110 259 155 408 124z m3528 -444 l385 -385 -167 -167 -168
-168 -103 103 c-79 79 -113 105 -140 112 -108 24 -203 -67 -182 -176 5 -31 27
-59 111 -144 l104 -106 -168 -167 -167 -167 -165 165 c-91 91 -179 172 -196
180 -72 34 -159 3 -194 -70 -43 -90 -25 -123 175 -325 l165 -165 -168 -168
-167 -167 -95 96 c-52 52 -107 102 -122 110 -92 48 -208 -27 -208 -134 0 -60
9 -73 118 -185 l97 -97 -167 -167 -168 -168 -172 172 c-184 182 -211 199 -281
184 -18 -5 -45 -16 -59 -25 -52 -34 -74 -127 -44 -184 8 -15 89 -101 180 -192
l166 -165 -167 -167 -168 -168 -165 165 c-202 200 -235 218 -325 175 -73 -35
-104 -122 -70 -194 8 -17 89 -105 180 -196 l165 -165 -167 -167 -167 -168
-106 104 c-85 84 -113 106 -144 111 -109 21 -200 -74 -176 -182 7 -27 33 -61
112 -140 l103 -103 -168 -168 -167 -167 -387 388 -388 387 1805 1805 c993 993
1807 1805 1810 1805 3 0 178 -173 390 -385z m-2200 -990 l-105 -105 -410 410
-410 410 105 105 105 105 410 -410 410 -410 -105 -105z m-727 87 l407 -407
-105 -105 -105 -105 -410 410 -410 410 102 102 c57 57 105 103 108 103 3 0
188 -183 413 -408z m2395 -1545 l352 -352 -105 -105 -105 -105 -355 355 -355
355 102 102 c57 57 105 103 108 103 3 0 164 -159 358 -353z m-178 -882 l-105
-105 -355 355 -355 355 105 105 105 105 355 -355 355 -355 -105 -105z m850
-140 c84 -209 161 -401 171 -427 l19 -48 -48 19 c-231 92 -809 324 -816 328
-4 3 108 122 250 264 142 142 262 255 265 251 4 -4 76 -178 159 -387z"/>
</g>
</svg>
