<?xml version="1.0" standalone="no"?>
<!DOCTYPE svg PUBLIC "-//W3C//DTD SVG 20010904//EN"
 "http://www.w3.org/TR/2001/REC-SVG-20010904/DTD/svg10.dtd">
<svg version="1.0" xmlns="http://www.w3.org/2000/svg"
 width="512.000000pt" height="512.000000pt" viewBox="0 0 512.000000 512.000000"
 preserveAspectRatio="xMidYMid meet">

<g transform="translate(0.000000,512.000000) scale(0.100000,-0.100000)"
stroke="none">
<path d="M680 4628 c-76 -29 -160 -114 -188 -191 -22 -57 -22 -66 -22 -702 l0
-643 31 -31 c51 -52 146 -40 181 22 10 17 14 171 18 649 l5 628 28 27 27 28
2018 3 c1464 2 2024 -1 2044 -9 15 -6 35 -23 45 -38 17 -25 18 -98 21 -1439 1
-954 -1 -1426 -8 -1452 -6 -24 -22 -47 -39 -59 -29 -21 -38 -21 -1464 -23
l-1436 -3 -28 -21 c-15 -11 -34 -38 -42 -60 -12 -34 -11 -44 2 -76 26 -63 53
-73 204 -76 l133 -4 0 -186 c0 -169 -2 -190 -20 -220 -25 -41 -54 -52 -139
-52 -38 0 -82 -3 -100 -6 -67 -14 -105 -90 -77 -157 29 -72 -35 -67 922 -67
l862 0 31 31 c26 26 31 38 31 78 0 89 -49 121 -187 121 -82 0 -115 12 -140 49
-15 22 -19 55 -21 218 l-4 192 739 3 738 3 58 23 c73 30 149 104 185 179 l27
58 3 1450 c2 1085 0 1464 -9 1505 -23 107 -82 185 -181 237 l-53 28 -2070 2
-2070 2 -55 -21z m2463 -3675 c2 -115 8 -218 12 -230 l7 -23 -370 0 -371 0 10
32 c5 18 9 122 9 230 l0 198 349 0 349 0 5 -207z"/>
<path d="M219 2767 c-104 -43 -177 -125 -204 -228 -21 -77 -22 -1737 -1 -1814
27 -105 88 -178 185 -224 l56 -26 560 0 560 0 57 27 c62 29 130 92 158 148 38
76 40 117 40 983 0 714 -2 852 -15 900 -26 102 -91 181 -185 226 l-55 26 -550
2 -550 3 -56 -23z m1116 -222 c63 -31 60 14 60 -915 0 -924 2 -885 -57 -916
-40 -21 -1006 -21 -1046 0 -59 31 -57 -8 -57 916 0 926 -3 884 59 914 47 23
992 24 1041 1z"/>
<path d="M783 1043 c-12 -2 -36 -20 -54 -40 -28 -32 -31 -41 -26 -82 13 -118
171 -141 217 -32 16 39 6 92 -23 119 -21 20 -71 44 -85 41 -4 -1 -17 -4 -29
-6z"/>
<path d="M1911 2074 c-78 -55 -52 -189 40 -208 18 -3 609 -6 1316 -6 1383 0
1329 -2 1367 51 9 14 16 43 16 70 0 40 -5 53 -31 78 l-31 31 -1327 0 c-1210 0
-1329 -1 -1350 -16z"/>
<path d="M2714 1706 c-26 -26 -34 -42 -34 -70 0 -73 47 -121 116 -119 46 1 82
27 101 71 31 75 -22 152 -107 152 -34 0 -48 -6 -76 -34z"/>
</g>
</svg>
