<?xml version="1.0" standalone="no"?>
<!DOCTYPE svg PUBLIC "-//W3C//DTD SVG 20010904//EN"
 "http://www.w3.org/TR/2001/REC-SVG-20010904/DTD/svg10.dtd">
<svg version="1.0" xmlns="http://www.w3.org/2000/svg"
 width="512.000000pt" height="512.000000pt" viewBox="0 0 512.000000 512.000000"
 preserveAspectRatio="xMidYMid meet">

<g transform="translate(0.000000,512.000000) scale(0.100000,-0.100000)"
stroke="none">
<path d="M2484 5086 l-34 -34 0 -251 c0 -274 4 -296 55 -319 48 -22 93 -11
127 32 16 19 18 49 18 273 0 272 -3 294 -51 319 -45 23 -78 17 -115 -20z"/>
<path d="M849 5061 c-23 -23 -29 -38 -29 -72 0 -43 2 -45 208 -251 l208 -208
46 0 c50 0 92 31 100 73 10 54 -11 82 -215 285 -201 199 -205 202 -246 202
-34 0 -49 -6 -72 -29z"/>
<path d="M4114 5061 c-21 -16 -119 -109 -216 -208 -172 -174 -178 -182 -178
-221 0 -29 7 -49 26 -71 22 -26 33 -31 72 -31 l46 0 208 208 c206 206 208 208
208 251 0 34 -6 49 -29 72 -39 39 -85 39 -137 0z"/>
<path d="M2153 4286 c-22 -7 -55 -23 -71 -35 -28 -19 -35 -20 -82 -10 -157 34
-333 -65 -390 -219 -17 -45 -21 -74 -18 -139 l3 -81 -35 -11 c-54 -16 -129
-69 -162 -115 -57 -78 -72 -123 -72 -223 l0 -91 -53 -22 c-72 -30 -143 -96
-178 -167 -27 -52 -30 -68 -30 -153 0 -83 3 -101 27 -146 l26 -52 -41 -18
c-63 -28 -141 -112 -168 -181 -33 -86 -31 -189 5 -268 15 -33 41 -75 59 -93
l31 -32 -164 -166 c-144 -143 -168 -164 -190 -160 -114 25 -133 27 -188 15
-92 -19 -130 -44 -268 -183 -161 -162 -179 -193 -179 -321 0 -132 19 -165 198
-342 139 -139 145 -143 186 -143 57 0 101 41 101 95 0 34 -11 49 -139 180
-199 203 -199 210 -17 393 l122 122 51 0 c45 0 58 -5 100 -39 26 -21 285 -277
576 -568 398 -399 530 -538 537 -563 18 -64 0 -96 -127 -222 -129 -127 -161
-144 -226 -117 -17 7 -93 73 -168 146 -125 122 -140 133 -174 133 -54 0 -95
-44 -95 -102 0 -42 3 -46 148 -189 177 -175 207 -193 332 -193 128 -1 180 28
337 186 150 152 178 202 177 318 0 52 -7 92 -22 130 l-22 55 192 192 c126 127
204 197 225 204 22 7 113 9 270 5 l238 -6 203 -203 203 -203 -17 -44 c-10 -26
-17 -76 -18 -120 -1 -118 31 -175 191 -331 157 -154 192 -173 313 -174 156 0
110 -37 773 624 669 667 642 634 642 786 0 83 -3 95 -34 152 -24 45 -70 98
-161 186 -106 105 -136 128 -186 147 -73 27 -180 29 -243 4 l-43 -17 -166 166
-165 165 38 52 c20 28 46 79 57 113 51 161 -31 343 -187 416 -25 12 -52 21
-61 21 -11 0 -14 6 -8 22 12 39 5 154 -12 199 -38 97 -126 184 -214 210 l-35
11 0 96 c0 86 -3 104 -28 154 -35 70 -119 149 -184 173 l-49 17 1 92 c0 78 -4
99 -26 147 -61 130 -159 193 -324 209 -55 5 -242 36 -415 70 -347 67 -443 77
-507 56z m387 -238 c124 -23 227 -43 230 -45 2 -2 -54 -62 -125 -133 l-129
-129 -40 22 c-63 34 -207 183 -239 247 -15 30 -27 64 -27 74 0 17 6 18 53 13
28 -4 153 -25 277 -49z m-540 -18 c8 -4 23 -29 32 -55 57 -154 248 -346 422
-425 58 -26 66 -34 75 -67 21 -76 -31 -165 -104 -179 -85 -16 -92 -11 -358
254 -137 136 -255 259 -263 274 -20 39 -18 107 6 146 37 60 129 85 190 52z
m1127 -81 c43 -16 82 -59 94 -101 18 -69 1 -100 -131 -233 -117 -119 -120
-123 -120 -167 0 -60 37 -98 98 -98 39 0 48 6 120 75 80 76 113 95 160 95 40
0 103 -41 123 -80 43 -81 15 -144 -122 -275 -46 -44 -92 -91 -101 -105 -45
-65 2 -150 82 -150 38 0 48 6 124 79 54 52 93 81 115 86 68 15 135 -16 166
-75 18 -34 20 -102 4 -133 -6 -12 -60 -72 -120 -133 -103 -105 -109 -113 -109
-152 0 -56 31 -91 87 -99 41 -5 44 -4 110 59 106 102 158 119 234 76 53 -30
83 -92 74 -150 -7 -38 -24 -59 -151 -189 -137 -139 -144 -148 -144 -186 0 -65
61 -115 123 -99 13 3 45 24 71 47 l48 42 161 -161 162 -162 -463 -462 -462
-463 -165 165 -166 166 91 90 c96 96 105 116 76 173 -17 31 -54 51 -98 51 -24
0 -45 -14 -102 -70 -117 -113 -176 -128 -437 -111 -175 11 -275 3 -347 -29
-35 -15 -100 -74 -254 -227 l-207 -206 -460 458 c-254 252 -461 463 -461 469
0 6 72 83 159 170 l159 159 49 -21 c100 -43 208 -37 307 16 88 48 160 151 173
250 7 52 15 62 55 62 49 0 136 40 187 86 59 53 100 132 110 206 l6 53 53 6
c74 10 153 51 206 110 46 51 86 138 86 187 0 40 10 48 65 56 111 14 211 93
263 204 36 78 37 192 2 270 l-23 54 144 144 c175 175 220 202 296 173z m-1419
-348 c35 -11 376 -329 438 -410 80 -104 16 -241 -111 -241 -20 0 -46 5 -58 11
-12 6 -115 104 -230 218 -225 224 -238 242 -218 319 12 44 55 89 97 102 39 11
44 11 82 1z m-258 -441 c45 -12 365 -330 375 -373 10 -40 0 -101 -21 -130 -48
-65 -143 -77 -210 -28 -59 43 -299 291 -318 328 -35 70 -6 156 66 192 49 24
59 25 108 11z m-164 -530 c37 -15 164 -138 180 -177 49 -115 -54 -234 -174
-201 -51 14 -186 149 -200 200 -31 115 82 220 194 178z m3490 -1022 c128 -129
141 -150 129 -216 -6 -32 -73 -104 -563 -594 -306 -307 -571 -565 -588 -573
-38 -18 -81 -19 -111 -2 -13 7 -72 62 -133 121 -115 115 -135 148 -123 210 4
24 120 146 557 585 303 304 565 562 581 572 19 12 48 19 80 19 l49 0 122 -122z"/>
<path d="M3378 1785 c-57 -32 -66 -108 -19 -156 71 -70 192 2 161 96 -6 18
-19 40 -29 49 -26 24 -81 29 -113 11z"/>
<path d="M664 811 c-12 -5 -31 -22 -44 -38 -29 -37 -23 -98 15 -130 62 -54
165 -9 165 71 0 66 -78 121 -136 97z"/>
</g>
</svg>
