<?xml version="1.0" standalone="no"?>
<!DOCTYPE svg PUBLIC "-//W3C//DTD SVG 20010904//EN"
 "http://www.w3.org/TR/2001/REC-SVG-20010904/DTD/svg10.dtd">
<svg version="1.0" xmlns="http://www.w3.org/2000/svg"
 width="512.000000pt" height="512.000000pt" viewBox="0 0 512.000000 512.000000"
 preserveAspectRatio="xMidYMid meet">

<g transform="translate(0.000000,512.000000) scale(0.100000,-0.100000)"
stroke="none">
<path d="M2365 5114 c-382 -39 -667 -121 -975 -281 -237 -122 -439 -271 -635
-468 -469 -468 -727 -1058 -752 -1715 -10 -288 32 -577 128 -865 74 -222 103
-263 190 -272 83 -8 159 58 159 139 0 22 -24 112 -54 201 -136 404 -160 750
-80 1152 194 978 1022 1717 2024 1806 466 41 937 -73 1377 -334 l103 -60 -51
-17 c-64 -22 -94 -51 -109 -106 -11 -38 -10 -51 4 -89 10 -25 31 -54 47 -66
46 -33 675 -239 729 -239 77 0 131 46 144 123 10 55 -211 721 -252 759 -39 36
-65 48 -109 48 -102 0 -172 -113 -133 -215 12 -33 17 -35 -110 51 -332 225
-701 369 -1100 429 -100 15 -460 28 -545 19z"/>
<path d="M2188 4189 c-64 -33 -78 -76 -78 -229 l0 -130 -27 -12 c-98 -39 -259
-126 -321 -173 -40 -30 -75 -55 -78 -55 -3 0 -57 29 -122 65 -128 71 -164 79
-218 46 -18 -11 -43 -34 -57 -53 -53 -71 -318 -546 -324 -580 -4 -26 1 -49 16
-81 19 -39 36 -52 137 -112 l116 -69 -9 -70 c-10 -91 -10 -261 0 -352 l9 -70
-116 -69 c-101 -60 -118 -73 -137 -112 -15 -32 -20 -55 -16 -81 6 -34 271
-509 324 -580 14 -19 39 -42 57 -53 54 -33 90 -25 218 46 65 36 119 65 122 65
3 0 38 -25 78 -55 62 -47 223 -134 321 -173 l27 -12 0 -130 c0 -155 14 -196
80 -230 37 -19 58 -20 370 -20 312 0 333 1 370 20 66 34 80 75 80 230 l0 131
33 11 c70 24 246 121 315 173 40 30 75 55 78 55 3 0 57 -29 122 -65 129 -72
161 -78 222 -44 40 23 55 46 264 409 59 102 109 202 112 222 5 26 0 49 -15 81
-19 39 -36 52 -137 112 l-116 69 9 70 c4 39 8 118 8 176 0 58 -4 137 -8 176
l-9 70 116 69 c101 60 118 73 137 112 15 32 20 55 16 81 -4 20 -57 124 -119
232 -202 353 -217 376 -258 399 -61 34 -93 28 -222 -44 -65 -36 -119 -65 -122
-65 -3 0 -38 25 -78 55 -69 52 -245 149 -315 173 l-33 11 0 131 c0 155 -14
196 -80 230 -37 19 -58 20 -372 20 -312 -1 -335 -2 -370 -21z m522 -390 c0
-171 15 -192 170 -245 165 -56 256 -108 393 -226 114 -99 143 -100 288 -17 48
27 89 49 91 49 5 0 148 -244 148 -253 0 -2 -40 -28 -89 -56 -147 -85 -165
-121 -132 -261 39 -162 38 -314 -5 -484 -29 -112 -3 -156 137 -237 49 -28 89
-54 89 -56 0 -9 -143 -253 -148 -253 -2 0 -43 22 -91 49 -145 83 -174 82 -288
-17 -137 -118 -228 -170 -393 -226 -155 -53 -170 -74 -170 -245 l0 -111 -150
0 -150 0 0 111 c0 165 -22 199 -150 238 -154 47 -282 120 -418 237 -108 94
-139 96 -282 13 -47 -27 -88 -49 -91 -49 -6 0 -149 243 -149 253 0 3 34 25 76
48 160 88 179 124 143 270 -33 133 -33 325 0 458 36 146 17 182 -143 270 -42
23 -76 45 -76 48 0 10 143 253 149 253 3 0 44 -22 91 -49 143 -83 174 -81 282
13 136 117 264 190 418 237 128 39 150 73 150 238 l0 111 150 0 150 0 0 -111z"/>
<path d="M2405 3293 c-343 -73 -595 -384 -595 -733 0 -351 255 -662 602 -734
246 -51 499 26 677 207 138 140 205 289 218 487 27 425 -325 794 -754 789 -43
0 -109 -7 -148 -16z m247 -294 c87 -18 158 -58 223 -123 258 -259 118 -696
-244 -758 -141 -24 -281 22 -386 127 -178 177 -178 454 -1 630 111 111 258
155 408 124z"/>
<path d="M4720 3592 c-47 -23 -80 -75 -80 -124 0 -22 25 -112 54 -201 95 -281
133 -528 122 -792 -13 -327 -83 -607 -226 -901 -222 -458 -585 -820 -1045
-1045 -216 -105 -408 -165 -660 -205 -135 -22 -488 -25 -610 -6 -343 56 -610
152 -902 325 l-103 60 50 17 c63 21 85 41 105 95 21 54 7 116 -36 156 -38 35
-670 249 -737 249 -77 0 -135 -47 -147 -120 -6 -33 11 -91 109 -387 64 -191
122 -355 129 -364 22 -29 81 -59 117 -59 107 0 180 111 140 215 -12 33 -17 35
110 -51 337 -226 705 -370 1105 -430 168 -26 532 -26 700 0 555 84 1049 331
1441 721 218 217 371 429 499 690 92 187 136 307 185 499 125 494 102 974 -71
1459 -22 65 -51 132 -63 150 -25 37 -78 67 -121 67 -16 0 -46 -8 -65 -18z"/>
</g>
</svg>
